# xmcd
#
# Track frame offsets:
#	150
#	25952
#	43580
#	63732
#	85765
#	109565
#	136332
#	152337
#	172607
#	191770
#	209392
#	231157
#	245935
#
# Disc length: 3537 seconds
#
# Revision: 0
# Processed by: cddbd v1.5.2PL0 Copyright (c) Steve Scherf et al.
# Submitted via: audiograbber 1.83.01
#
DISCID=aa0dcf0d
DTITLE=Scorpions - Face The Heat [CD-R]
DYEAR=1993
DGENRE=Heavy Metal
TTITLE0=Alien Nation
TTITLE1=No Pain No Gain
TTITLE2=Someone To Touch
TTITLE3=Under The Same Sun
TTITLE4=Unholy Alliance
TTITLE5=Woman
TTITLE6=Hate To Be Nice
TTITLE7=Taxman Woman
TTITLE8=Ship Of Fools
TTITLE9=Nigthmare Avenue
TTITLE10=Lonely Nigths
TTITLE11=Destin
TTITLE12=Daddy's Girl
EXTD=
EXTT0=
EXTT1=
EXTT2=
EXTT3=
EXTT4=
EXTT5=
EXTT6=
EXTT7=
EXTT8=
EXTT9=
EXTT10=
EXTT11=
EXTT12=
PLAYORDER=
